<?xml version="1.0" encoding="UTF-8" standalone="no"?>
<!-- Created with Inkscape (http://www.inkscape.org/) -->

<svg
   width="1391.593"
   height="1050.5319"
   viewBox="0 0 1391.593 1050.5319"
   version="1.1"
   id="svg1"
   xml:space="preserve"
   sodipodi:docname="JIO.svg"
   inkscape:version="1.4 (86a8ad7, 2024-10-11)"
   xmlns:inkscape="http://www.inkscape.org/namespaces/inkscape"
   xmlns:sodipodi="http://sodipodi.sourceforge.net/DTD/sodipodi-0.dtd"
   xmlns="http://www.w3.org/2000/svg"
   xmlns:svg="http://www.w3.org/2000/svg"><sodipodi:namedview
     id="namedview1"
     pagecolor="#505050"
     bordercolor="#eeeeee"
     borderopacity="1"
     inkscape:showpageshadow="0"
     inkscape:pageopacity="0"
     inkscape:pagecheckerboard="0"
     inkscape:deskcolor="#505050"
     inkscape:zoom="0.6734375"
     inkscape:cx="691.97216"
     inkscape:cy="529.37355"
     inkscape:window-width="2560"
     inkscape:window-height="1351"
     inkscape:window-x="1431"
     inkscape:window-y="515"
     inkscape:window-maximized="1"
     inkscape:current-layer="layer1" /><defs
     id="defs1" /><g
     id="layer1"
     transform="translate(-267.95862,-10.119632)"><path
       style="fill:#000000"
       d="m 1241.1187,1026.9108 c -129.9178,-18.4152 -236.6473,-33.95195 -237.1767,-34.52618 -0.5295,-0.57424 -3.7016,-10.05909 -7.04923,-21.07746 -22.3711,-73.63245 -67.88656,-122.90113 -121.9654,-132.02271 -47.84564,-8.07021 -89.92764,13.95446 -127.22327,66.58549 -11.46339,16.17696 -35.99538,62.66095 -41.68895,78.99355 -1.66882,4.78717 -4.57903,7.90736 -8.06538,8.64731 -10.67164,2.26498 -428.95892,46.4848 -429.98705,45.4567 -0.57572,-0.5757 59.52798,-79.57476 133.5638,-175.55342 l 134.61057,-174.50667 12.5859,5.56609 c 33.19604,14.68086 73.55886,18.07296 103.81363,8.72452 20.98483,-6.48411 46.29715,-24.02441 60.96253,-42.24427 12.97221,-16.11632 30.35986,-50.82964 34.45704,-68.79123 1.74561,-7.65262 2.43318,-21.62121 1.74017,-35.35305 -1.92121,-38.06774 -18.47077,-71.72279 -51.19451,-104.10873 l -15.57552,-15.41473 81.78693,-212.0232 C 809.69606,108.65005 847.37889,11.852835 848.45287,10.157887 849.7168,8.1631656 882.15854,84.22972 940.4273,225.81147 l 90.0217,218.73531 -7.5313,5.70169 c -14.0602,10.64452 -32.36516,31.3297 -41.60607,47.01612 -14.89272,25.28035 -19.66167,42.22252 -20.80665,73.91767 -2.68916,74.44121 27.40915,121.04078 89.68472,138.85404 17.3187,4.9538 24.2188,5.5505 64.1853,5.5505 28.5889,0 50.5711,-1.16896 60.7953,-3.23295 8.8081,-1.77812 16.3252,-2.83872 16.7045,-2.35687 0.3793,0.48184 65.558,79.02396 144.8415,174.53803 79.2835,95.51408 144.1519,174.26299 144.1519,174.99759 0,0.7346 -0.7955,1.2287 -1.7677,1.0979 -0.9722,-0.1307 -108.064,-15.3046 -237.9818,-33.7197 z M 1372.215,896.94524 c -15.9336,-18.92149 -16.9016,-20.69483 -13.8801,-25.42935 15.0244,-23.54242 34.4359,-56.47874 45.7129,-77.56317 l 13.5512,-25.33635 h 25.7424 25.7424 v -23.5687 -23.5687 h -12.8237 c -7.053,0 -13.4753,-1.05438 -14.2718,-2.34308 -0.7964,-1.28869 3.2778,-14.81123 9.0538,-30.05009 16.6773,-43.99965 31.0807,-99.50735 35.7805,-137.89067 l 1.6593,-13.552 h 35.0815 35.0815 v -23.5687 -23.56869 h -33.8141 -33.8141 l -1.4933,-26.51479 c -2.7495,-48.82036 -14.0401,-104.90997 -29.8232,-148.15674 -3.913,-10.72171 -7.1145,-19.82132 -7.1145,-20.22134 0,-0.40003 10.1169,-0.72732 22.4821,-0.72732 h 22.482 l -0.681,-20.62261 -0.681,-20.62261 -31.9682,-0.65288 -31.9683,-0.65287 -5.0667,-10.42885 c -17.8306,-36.70084 -55.5141,-88.32515 -91.2181,-124.96385 -15.2688,-15.6685 -20.2755,-20.008877 -12.655,-10.97065 36.6224,43.43541 60.27,77.96746 80.5717,117.65697 7.3422,14.35398 13.3495,26.71365 13.3495,27.46592 0,0.75228 -41.376,1.36777 -91.9466,1.36777 h -91.9466 l 0.6179,-87.7934 0.6179,-87.793396 14.1412,0.7557 c 49.7485,2.658532 141.0173,33.225546 201.5587,67.504416 33.807,19.14166 59.0664,38.54041 87.2631,67.01639 29.483,29.77493 50.6854,60.46914 70.2813,101.74433 81.8126,172.32347 66.3868,332.36312 -44.8516,465.32635 -41.1949,49.24028 -98.7455,96.36823 -157.9124,129.31381 l -15.7125,8.74907 z m -68.238,-81.62967 -38.3195,-45.52077 61.9994,-0.62904 c 34.0996,-0.34597 62.4747,-0.15366 63.0557,0.42737 1.9877,1.98766 -40.2848,82.09505 -47.7582,90.50297 -0.3619,0.40714 -17.9017,-19.7441 -38.9774,-44.78053 z m -70.5801,-185.72651 v -91.94593 h 113.2741 113.2742 l -1.5607,11.19513 c -6.3019,45.20537 -20.825,103.76009 -36.9738,149.07201 l -7.9797,22.39027 -90.0171,0.61722 -90.017,0.61722 z m -41.5308,51.62819 -7.2656,-7.26555 -12.5611,3.73024 c -16.9096,5.02164 -75.2083,5.08072 -96.3486,0.0976 -39.2957,-9.26256 -66.2494,-36.48538 -75.74484,-76.50097 -3.32494,-14.012 -4.27985,-56.06492 -1.37964,-60.75755 1.35629,-2.19453 26.09118,-2.87793 104.16338,-2.87793 h 102.3847 v 75.41983 c 0,59.37407 -0.6364,75.41983 -2.9914,75.41983 -1.6453,0 -6.2609,-3.26949 -10.2569,-7.26554 z M 1018.9217,495.69426 c 0,-3.22742 18.2194,-21.02289 29.3981,-28.71399 5.8678,-4.03716 10.6687,-8.17132 10.6687,-9.18702 0,-1.0157 -14.318,-37.51938 -31.8177,-81.11929 -17.4998,-43.59991 -31.81776,-79.83863 -31.81776,-80.53049 0,-0.69186 45.60546,-1.25792 101.34536,-1.25792 h 101.3454 v 101.3454 101.34539 h -89.561 c -49.2586,0 -89.5611,-0.84694 -89.5611,-1.88208 z m 214.4752,-102.99862 v -97.81009 h 100.2253 100.2253 l 2.505,6.48139 c 4.9004,12.67909 16.1369,58.6805 19.7176,80.72279 4.5734,28.15284 8.9944,90.5994 7.1332,100.75618 l -1.4037,7.65983 h -114.2014 -114.2013 z m -269.16535,-172.66012 -15.80184,-39.45816 8.73123,-7.88162 c 14.50953,-13.09764 52.03626,-37.05724 79.75926,-50.9237 14.382,-7.19356 26.8436,-13.0792 27.6924,-13.0792 0.8488,0 -4.6764,8.21958 -12.2783,18.26574 -33.7402,44.58893 -52.0565,77.20001 -62.90784,112.00418 -3.52732,11.31336 -7.08376,20.56101 -7.90319,20.55033 -0.81943,-0.0107 -8.60071,-17.77558 -17.29172,-39.47757 z m 46.59315,9.4519 c 11.2693,-31.13183 45.1845,-94.95139 63.7705,-119.99946 5.7211,-7.71027 22.2014,-14.398633 57.2683,-23.241793 14.1195,-3.560657 66.6174,-11.376654 67.1284,-9.994219 0.1267,0.34273 -0.084,40.130172 -0.4673,88.416542 l -0.6977,87.7934 h -97.6593 -97.6593 z"
       id="path1" /></g></svg>
